<?xml version="1.0" encoding="UTF-8"?>
<svg width="164px" height="66px" viewBox="0 0 164 66" version="1.1" xmlns="http://www.w3.org/2000/svg" xmlns:xlink="http://www.w3.org/1999/xlink">
    <!-- Generator: Sketch 51.3 (57544) - http://www.bohemiancoding.com/sketch -->
    <title>full/white/svg/pixelfed-full-white</title>
    <desc>Created with Sketch.</desc>
    <defs></defs>
    <g id="Page-1" stroke="none" stroke-width="1" fill="none" fill-rule="evenodd">
        <g id="full-copy-12" fill="#FFFFFF">
            <g id="Group-6" transform="translate(18.000000, 17.000000)">
                <g id="Group" transform="translate(41.000000, 6.000000)">
                    <path d="M6.905097,13.1168695 L3.66004184,13.1168695 L3.66004184,19.5 L0.1386221,19.5 L0.1386221,1.24210727 L6.89618201,1.24210727 C8.41173732,1.24210727 9.63902155,1.49469603 10.5780715,1.99988113 C11.5171215,2.50506624 12.2050544,3.2048857 12.6418909,4.0993605 C13.0787275,4.9938353 13.2971424,6.02350597 13.2971424,7.18840339 C13.2971424,8.96546628 12.7889933,10.3977932 11.7726797,11.485427 C10.7563662,12.5730608 9.13385481,13.1168695 6.905097,13.1168695 Z M3.66004184,4.20188285 L3.66004184,10.1927539 L6.905097,10.1927539 C7.9808441,10.1927539 8.73415294,9.90301973 9.16504612,9.3235427 C9.5959393,8.74406566 9.81138266,8.03235968 9.81138266,7.18840339 C9.81138266,6.34444709 9.59445348,5.63571274 9.16058863,5.06217906 C8.72672377,4.48864538 7.97192911,4.20188285 6.89618201,4.20188285 L3.66004184,4.20188285 Z M16.256918,4.66546215 C15.6922994,4.66546215 15.2198098,4.48567839 14.8394351,4.12610546 C14.4590605,3.76653253 14.268876,3.33416 14.268876,2.8289749 C14.268876,2.34161985 14.4590605,1.91370477 14.8394351,1.54521681 C15.2198098,1.17672885 15.6922994,0.992487638 16.256918,0.992487638 C16.8215367,0.992487638 17.288083,1.17672885 17.6565709,1.54521681 C18.0250589,1.91370477 18.2093001,2.34161985 18.2093001,2.8289749 C18.2093001,3.33416 18.0250589,3.76653253 17.6565709,4.12610546 C17.288083,4.48567839 16.8215367,4.66546215 16.256918,4.66546215 Z M17.9775105,5.80658045 L17.9775105,19.5 L14.5184956,19.5 L14.5184956,5.80658045 L17.9775105,5.80658045 Z M23.3175875,5.80658045 L25.6978889,10.2640738 L28.1316803,5.80658045 L31.7244199,5.80658045 L27.8553157,12.6532902 L31.8224848,19.5 L28.2297452,19.5 L25.6978889,15.1584015 L23.1927777,19.5 L19.5822081,19.5 L23.5226322,12.6532902 L19.7070179,5.80658045 L23.3175875,5.80658045 Z M38.7672594,19.7585346 C37.3943446,19.7585346 36.2131207,19.4777153 35.2235522,18.9160684 C34.2339837,18.3544214 33.47176,17.5565381 32.9368581,16.5223944 C32.4019562,15.4882508 32.1345093,14.257995 32.1345093,12.83159 C32.1345093,11.4408451 32.3900697,10.2031601 32.9011982,9.118498 C33.4123266,8.03383587 34.1522631,7.18097734 35.1210299,6.55989682 C36.0897966,5.93881631 37.2576482,5.62828072 38.6246196,5.62828072 C39.7835737,5.62828072 40.8251309,5.87195458 41.7493225,6.35930962 C42.673514,6.84666467 43.4045356,7.57768626 43.9424092,8.55239635 C44.4802827,9.52710643 44.7492155,10.7454758 44.7492155,12.2075409 L44.7492155,13.6606837 L35.4776293,13.6606837 C35.5905531,14.6769973 35.9159468,15.4748806 36.4538204,16.0543576 C36.9916939,16.6338347 37.7539177,16.9235688 38.7405145,16.9235688 C39.5666407,16.9235688 40.1877119,16.7348702 40.6037467,16.3574672 C41.0197815,15.9800642 41.3199163,15.5358051 41.5041603,15.0246767 L44.6065757,15.8626854 C44.4401618,16.492681 44.1236829,17.1048373 43.6571296,17.6991727 C43.1905763,18.2935081 42.554647,18.7853133 41.7493225,19.174603 C40.943998,19.5638927 39.9499869,19.7585346 38.7672594,19.7585346 Z M38.5978747,8.43650152 C37.8014652,8.43650152 37.1447344,8.68611865 36.6276626,9.1853604 C36.1105908,9.68460215 35.7599382,10.3829358 35.5756942,11.2803823 L41.4685004,11.2803823 C41.4685004,10.4720861 41.2173974,9.79603971 40.715184,9.2522228 C40.2129706,8.7084059 39.5072079,8.43650152 38.5978747,8.43650152 Z M49.9199078,1.24210727 L49.9199078,19.5 L46.4608929,19.5 L46.4608929,1.24210727 L49.9199078,1.24210727 Z M53.138218,19.5 L53.138218,8.37409661 L51.2928157,8.37409661 L51.2928157,5.80658045 L53.138218,5.80658045 L53.138218,5.25385127 C53.138218,3.81555956 53.5497891,2.74577186 54.3729436,2.04445607 C55.1960982,1.34314027 56.2138823,0.992487638 57.4263266,0.992487638 C58.0147186,0.992487638 58.528811,1.03854794 58.9686192,1.13066993 C59.4084275,1.22279192 59.7382787,1.30451182 59.9581828,1.37583207 L59.2984738,4.01466812 C59.1439465,3.96712129 58.9671344,3.92403262 58.768032,3.88540082 C58.5689297,3.84676902 58.3534863,3.8274534 58.1216955,3.8274534 C57.1053819,3.8274534 56.5972328,4.35640399 56.5972328,5.41432103 L56.5972328,5.80658045 L59.2984738,5.80658045 L59.2984738,8.37409661 L56.5972328,8.37409661 L56.5972328,19.5 L53.138218,19.5 Z M66.4661231,19.7585346 C65.0932082,19.7585346 63.9119843,19.4777153 62.9224158,18.9160684 C61.9328474,18.3544214 61.1706236,17.5565381 60.6357218,16.5223944 C60.1008199,15.4882508 59.833373,14.257995 59.833373,12.83159 C59.833373,11.4408451 60.0889334,10.2031601 60.6000618,9.118498 C61.1111903,8.03383587 61.8511268,7.18097734 62.8198935,6.55989682 C63.7886602,5.93881631 64.9565118,5.62828072 66.3234833,5.62828072 C67.4824373,5.62828072 68.5239945,5.87195458 69.4481861,6.35930962 C70.3723777,6.84666467 71.1033993,7.57768626 71.6412728,8.55239635 C72.1791464,9.52710643 72.4480791,10.7454758 72.4480791,12.2075409 L72.4480791,13.6606837 L63.176493,13.6606837 C63.2894167,14.6769973 63.6148105,15.4748806 64.152684,16.0543576 C64.6905576,16.6338347 65.4527813,16.9235688 66.4393781,16.9235688 C67.2655043,16.9235688 67.8865755,16.7348702 68.3026103,16.3574672 C68.7186451,15.9800642 69.01878,15.5358051 69.203024,15.0246767 L72.3054393,15.8626854 C72.1390254,16.492681 71.8225466,17.1048373 71.3559932,17.6991727 C70.8894399,18.2935081 70.2535106,18.7853133 69.4481861,19.174603 C68.6428616,19.5638927 67.6488505,19.7585346 66.4661231,19.7585346 Z M66.2967383,8.43650152 C65.5003288,8.43650152 64.8435981,8.68611865 64.3265262,9.1853604 C63.8094544,9.68460215 63.4588018,10.3829358 63.2745578,11.2803823 L69.167364,11.2803823 C69.167364,10.4720861 68.9162611,9.79603971 68.4140476,9.2522228 C67.9118342,8.7084059 67.2060715,8.43650152 66.2967383,8.43650152 Z M86.0880087,19.5 L82.6735688,19.5 L82.6735688,17.8774724 L82.4863541,17.8774724 C82.2545633,18.3529408 81.860822,18.7823417 81.3051184,19.165688 C80.7494148,19.5490343 80.019879,19.7407046 79.1164892,19.7407046 C78.0942322,19.7407046 77.1715403,19.4688003 76.3483858,18.9249834 C75.5252312,18.3811665 74.8714721,17.5832831 74.3870887,16.5313094 C73.9027054,15.4793357 73.6605173,14.1896472 73.6605173,12.6622052 C73.6605173,11.1228765 73.9086486,9.83021634 74.4049187,8.784186 C74.9011888,7.73815567 75.5638628,6.95067305 76.3929607,6.42171453 C77.2220586,5.89275601 78.132864,5.62828072 79.1254041,5.62828072 C80.0406807,5.62828072 80.7717023,5.82292264 81.3184909,6.21221234 C81.8652795,6.60150204 82.2545633,7.03090294 82.4863541,7.50042792 L82.6289939,7.50042792 L82.6289939,1.24210727 L86.0880087,1.24210727 L86.0880087,19.5 Z M76.9590624,12.6532902 C76.9590624,13.9311114 77.2161086,14.9622679 77.7302087,15.7467906 C78.2443089,16.5313134 79.0095042,16.9235688 80.0258178,16.9235688 C80.7330769,16.9235688 81.3021446,16.7348702 81.7330378,16.3574672 C82.1639309,15.9800642 82.4759523,15.4674576 82.6691114,14.819632 C82.8622704,14.1718064 82.9588484,13.4496997 82.9588484,12.6532902 C82.9588484,11.4467893 82.7344902,10.4423775 82.2857669,9.64002472 C81.8370437,8.83767191 81.0837348,8.43650152 80.0258178,8.43650152 C79.0035609,8.43650152 78.2368797,8.82132793 77.7257512,9.5909923 C77.2146228,10.3606567 76.9590624,11.3814124 76.9590624,12.6532902 Z" id="Pixelfed"></path>
                </g>
                <g id="Group-12">
                    <path d="M16,32 C7.163444,32 0,24.836556 0,16 C0,7.163444 7.163444,0 16,0 C24.836556,0 32,7.163444 32,16 C32,24.836556 24.836556,32 16,32 Z M14.7298022,19.4931298 L17.664937,19.4931298 C20.4299513,19.4931298 22.6714382,17.3110384 22.6714382,14.6192922 C22.6714382,11.927546 20.4299513,9.74545455 17.664937,9.74545455 L13.4286667,9.74545455 C11.8334662,9.74545455 10.5403006,11.0043534 10.5403006,12.5572839 L10.5403006,23.5012981 L14.7298022,19.4931298 Z" id="Combined-Shape"></path>
                </g>
            </g>
        </g>
    </g>
</svg>